<svg width="1400" height="1000" viewBox="0 0 1400 1000" fill="none" xmlns="http://www.w3.org/2000/svg">
<g id="FloorPlan">
<rect width="1400" height="1000" fill="white"/>
<g id="Room">
<rect id="Rectangle 1" x="35" y="578.5" width="484" height="51" fill="#F1F1F1"/>
<g id="Group 2">
<rect id="Rectangle 2" x="519" y="347.5" width="263" height="231" fill="#878787"/>
<path id="Line 1" d="M652.5 403L652.5 578.5" stroke="black" stroke-width="5"/>
<path id="Line 2" d="M662.986 438L767 438" stroke="black" stroke-width="3"/>
<path id="Line 14" d="M663 412.5L767.014 412.5" stroke="black" stroke-width="3"/>
<path id="Line 8" d="M533 438.5L637.014 438.5" stroke="black" stroke-width="3"/>
<path id="Line 15" d="M533 412.5L637.014 412.5" stroke="black" stroke-width="3"/>
<path id="Line 3" d="M663 463.5L767.014 463.5" stroke="black" stroke-width="3"/>
<path id="Line 9" d="M533.014 464L637.029 464" stroke="black" stroke-width="3"/>
<path id="Line 4" d="M663.014 489L767.029 489" stroke="black" stroke-width="3"/>
<path id="Line 10" d="M533.029 489.5L637.043 489.5" stroke="black" stroke-width="3"/>
<path id="Line 5" d="M663.029 514.5L767.043 514.5" stroke="black" stroke-width="3"/>
<path id="Line 11" d="M533.043 515L637.058 515" stroke="black" stroke-width="3"/>
<path id="Line 6" d="M663.043 540L767.058 540" stroke="black" stroke-width="3"/>
<path id="Line 12" d="M533.058 540.5L637.072 540.5" stroke="black" stroke-width="3"/>
<path id="Line 13" d="M533.072 566L637.087 566" stroke="black" stroke-width="3"/>
</g>
<g id="Group 3">
<rect id="Rectangle 2_2" x="907" y="485.5" width="43" height="51" transform="rotate(90 907 485.5)" fill="#878787"/>
<path id="Line 13_2" d="M864.5 486L864.5 507.293L864.5 528.587" stroke="black" stroke-width="3"/>
<path id="Line 14_2" d="M875.591 485.5L875.59 506.793L875.59 528.087" stroke="black" stroke-width="3"/>
<path id="Line 15_2" d="M886.591 485.5L886.59 506.793L886.59 528.087" stroke="black" stroke-width="3"/>
<path id="Line 16" d="M899.591 485.5L899.59 506.793L899.59 528.087" stroke="black" stroke-width="3"/>
</g>
<g id="Group 4">
<rect id="Rectangle 2_3" x="1137" y="676" width="43" height="51" transform="rotate(90 1137 676)" fill="#878787"/>
<path id="Line 13_3" d="M1094.5 676.5L1094.5 697.793L1094.5 719.087" stroke="black" stroke-width="3"/>
<path id="Line 14_3" d="M1105.59 676L1105.59 697.293L1105.59 718.587" stroke="black" stroke-width="3"/>
<path id="Line 15_3" d="M1116.59 676L1116.59 697.293L1116.59 718.587" stroke="black" stroke-width="3"/>
<path id="Line 16_2" d="M1129.59 676L1129.59 697.293L1129.59 718.587" stroke="black" stroke-width="3"/>
</g>
<path id="Line 16_3" d="M784.499 147L784.499 694M784.5 753L784.499 960" stroke="black" stroke-width="5"/>
<path id="Line 40" d="M784.499 147L784.499 694" stroke="black" stroke-width="5"/>
<path id="Line 41" d="M784.5 37L784.5 694" stroke="black" stroke-width="5"/>
<path id="Line 28" d="M858 533.5L858 605" stroke="black" stroke-width="5"/>
<path id="Line 31" d="M955 534L955 605.5" stroke="black" stroke-width="5"/>
<path id="Line 29" d="M858 407.5L858 479.5" stroke="black" stroke-width="5"/>
<path id="Line 30" d="M955 408L955 479.5" stroke="black" stroke-width="5"/>
<path id="Line 27" d="M1084.5 257L1084.5 605" stroke="black" stroke-width="5"/>
<path id="Line 24" d="M1023 39.5L1023 195" stroke="black" stroke-width="5"/>
<path id="Line 34" d="M1364 194.5L1364 726.5" stroke="black" stroke-width="5"/>
<path id="Line 36" d="M1275.5 461L1275.5 670" stroke="black" stroke-width="5"/>
<path id="Line 21" d="M1084.5 600L1084.5 669" stroke="black" stroke-width="5"/>
<path id="Line 22" d="M1082 722.5L1082 958" stroke="black" stroke-width="5"/>
<path id="Line 42" d="M35 756.5L35.0001 962" stroke="black" stroke-width="5"/>
<path id="Line 18" d="M1085.5 603L988.25 603L856 603" stroke="black" stroke-width="5"/>
<path id="Line 23" d="M1086.5 406.5L989.25 406.5L855.5 406.5" stroke="black" stroke-width="5"/>
<path id="Line 32" d="M957 477L917.75 477L857.5 477" stroke="black" stroke-width="5"/>
<path id="Line 33" d="M957 536L917.75 536L857 536" stroke="black" stroke-width="5"/>
<path id="Line 26" d="M1366.5 194.99L1186.45 194.99L1021 194.5" stroke="black" stroke-width="5"/>
<path id="Line 25" d="M1025.5 39.5L934.5 39.5L782 39.5" stroke="black" stroke-width="5"/>
<path id="Line 39" d="M1084 959.5L33 959.5" stroke="black" stroke-width="5"/>
<path id="Line 19" d="M1364.5 669L1175.25 669L1082 669" stroke="black" stroke-width="5"/>
<path id="Line 35" d="M1273.5 465L1179.25 465L1086 465" stroke="black" stroke-width="5"/>
<path id="Line 37" d="M1365 465L1276 463.5L1318 477.5" stroke="#946C6C" stroke-width="5"/>
<path id="Line 38" d="M956.339 479.003L955.013 535.962L967.506 509.08" stroke="#946C6C" stroke-width="5"/>
<path id="Line 20" d="M1364 724.5L1223 725L1082 725.5" stroke="black" stroke-width="5"/>
<path id="Line 24_2" d="M924 256.5L924 406.5" stroke="black" stroke-width="5"/>
<path id="Line 42_2" d="M35 573.5L35 692.5" stroke="black" stroke-width="5"/>
<path id="Line 26_2" d="M519 575.5L271.919 575.5L35 575.5" stroke="black" stroke-width="5"/>
<path id="Line 23_2" d="M1086.5 259.5L925 259.5" stroke="black" stroke-width="5"/>
</g>
<g id="Shelves">
<g id="A1">
<rect id="A1_2" x="717" y="578.5" width="65" height="115" fill="#D9D9D9"/>
<path id="A1_3" d="M734.328 649.5H731.004L740.618 623.318H743.891L753.504 649.5H750.181L742.357 627.46H742.152L734.328 649.5ZM735.556 639.273H748.953V642.085H735.556V639.273ZM765.096 623.318V649.5H761.926V626.642H761.773L755.381 630.886V627.665L761.926 623.318H765.096Z" fill="white"/>
</g>
<g id="A2">
<rect id="A1_4" x="454" y="578.5" width="65" height="115" fill="#D9D9D9"/>
<path id="A2_2" d="M468.182 649.5H464.858L474.472 623.318H477.744L487.358 649.5H484.034L476.21 627.46H476.006L468.182 649.5ZM469.409 639.273H482.807V642.085H469.409V639.273ZM490.976 649.5V647.199L499.618 637.739C500.632 636.631 501.467 635.668 502.124 634.849C502.78 634.023 503.266 633.247 503.581 632.523C503.905 631.79 504.067 631.023 504.067 630.222C504.067 629.301 503.845 628.504 503.402 627.831C502.967 627.158 502.371 626.638 501.612 626.271C500.854 625.905 500.001 625.722 499.055 625.722C498.05 625.722 497.172 625.93 496.422 626.348C495.68 626.757 495.105 627.332 494.696 628.074C494.295 628.815 494.095 629.685 494.095 630.682H491.078C491.078 629.148 491.432 627.801 492.139 626.642C492.847 625.483 493.81 624.58 495.028 623.932C496.256 623.284 497.632 622.96 499.158 622.96C500.692 622.96 502.051 623.284 503.236 623.932C504.42 624.58 505.349 625.453 506.023 626.553C506.696 627.652 507.033 628.875 507.033 630.222C507.033 631.185 506.858 632.126 506.509 633.047C506.168 633.959 505.571 634.977 504.719 636.102C503.875 637.219 502.703 638.582 501.203 640.193L495.322 646.483V646.688H507.493V649.5H490.976Z" fill="white"/>
</g>
<g id="A3">
<rect id="A1_5" x="454" y="752.5" width="65" height="115" fill="#D9D9D9"/>
<path id="A3_2" d="M467.619 823.5H464.295L473.909 797.318H477.182L486.795 823.5H483.472L475.648 801.46H475.443L467.619 823.5ZM468.847 813.273H482.244V816.085H468.847V813.273ZM499.26 823.858C497.572 823.858 496.068 823.568 494.747 822.989C493.435 822.409 492.391 821.604 491.615 820.572C490.848 819.533 490.43 818.327 490.362 816.955H493.584C493.652 817.798 493.942 818.527 494.453 819.141C494.964 819.746 495.634 820.214 496.46 820.547C497.287 820.879 498.203 821.045 499.209 821.045C500.334 821.045 501.331 820.849 502.2 820.457C503.07 820.065 503.751 819.52 504.246 818.821C504.74 818.122 504.987 817.312 504.987 816.392C504.987 815.429 504.749 814.581 504.271 813.848C503.794 813.107 503.095 812.527 502.175 812.109C501.254 811.692 500.129 811.483 498.8 811.483H496.703V808.67H498.8C499.839 808.67 500.751 808.483 501.536 808.108C502.328 807.733 502.946 807.205 503.389 806.523C503.841 805.841 504.067 805.04 504.067 804.119C504.067 803.233 503.871 802.462 503.479 801.805C503.087 801.149 502.533 800.638 501.817 800.271C501.109 799.905 500.274 799.722 499.311 799.722C498.408 799.722 497.555 799.888 496.754 800.22C495.962 800.544 495.314 801.017 494.811 801.639C494.308 802.253 494.036 802.994 493.993 803.864H490.925C490.976 802.491 491.389 801.29 492.165 800.259C492.94 799.219 493.955 798.409 495.207 797.83C496.469 797.25 497.854 796.96 499.362 796.96C500.982 796.96 502.371 797.288 503.53 797.945C504.689 798.592 505.58 799.449 506.202 800.514C506.824 801.58 507.135 802.73 507.135 803.966C507.135 805.44 506.747 806.697 505.972 807.737C505.205 808.777 504.161 809.497 502.839 809.898V810.102C504.493 810.375 505.784 811.078 506.713 812.212C507.642 813.337 508.107 814.73 508.107 816.392C508.107 817.815 507.719 819.094 506.943 820.227C506.176 821.352 505.128 822.239 503.798 822.886C502.469 823.534 500.956 823.858 499.26 823.858Z" fill="white"/>
</g>
<g id="A4">
<rect id="A1_6" x="186" y="752.5" width="65" height="115" fill="#D9D9D9"/>
<path id="A4_2" d="M199.531 823.5H196.208L205.821 797.318H209.094L218.708 823.5H215.384L207.56 801.46H207.355L199.531 823.5ZM200.759 813.273H214.156V816.085H200.759V813.273ZM221.712 818.131V815.523L233.218 797.318H235.11V801.358H233.831L225.138 815.114V815.318H240.632V818.131H221.712ZM234.036 823.5V817.338V816.124V797.318H237.053V823.5H234.036Z" fill="white"/>
</g>
<g id="B1">
<rect id="A1_7" x="856" y="256.5" width="65" height="147" fill="#D9D9D9"/>
<path id="B1_2" d="M872.096 359.5V333.318H881.25C883.074 333.318 884.578 333.634 885.762 334.264C886.947 334.886 887.829 335.726 888.409 336.783C888.988 337.831 889.278 338.994 889.278 340.273C889.278 341.398 889.078 342.327 888.677 343.06C888.285 343.793 887.765 344.372 887.118 344.798C886.478 345.224 885.784 345.54 885.034 345.744V346C885.835 346.051 886.64 346.332 887.45 346.844C888.26 347.355 888.937 348.088 889.483 349.043C890.028 349.997 890.301 351.165 890.301 352.545C890.301 353.858 890.002 355.038 889.406 356.087C888.809 357.135 887.868 357.966 886.581 358.58C885.294 359.193 883.619 359.5 881.556 359.5H872.096ZM875.267 356.688H881.556C883.627 356.688 885.098 356.287 885.967 355.486C886.845 354.676 887.284 353.696 887.284 352.545C887.284 351.659 887.058 350.841 886.606 350.091C886.154 349.332 885.511 348.727 884.676 348.276C883.841 347.815 882.852 347.585 881.71 347.585H875.267V356.688ZM875.267 344.824H881.147C882.102 344.824 882.963 344.636 883.73 344.261C884.505 343.886 885.119 343.358 885.571 342.676C886.031 341.994 886.261 341.193 886.261 340.273C886.261 339.122 885.86 338.146 885.059 337.345C884.258 336.536 882.988 336.131 881.25 336.131H875.267V344.824ZM904.255 333.318V359.5H901.084V336.642H900.931L894.539 340.886V337.665L901.084 333.318H904.255Z" fill="white"/>
</g>
<g id="B2">
<rect id="A1_8" x="787" y="42.5" width="65" height="152" fill="#D9D9D9"/>
<path id="B2_2" d="M800.565 132.117V105.936H809.718C811.542 105.936 813.047 106.251 814.231 106.882C815.416 107.504 816.298 108.343 816.877 109.4C817.457 110.448 817.747 111.612 817.747 112.89C817.747 114.015 817.547 114.944 817.146 115.677C816.754 116.41 816.234 116.99 815.586 117.416C814.947 117.842 814.252 118.157 813.502 118.362V118.617C814.304 118.669 815.109 118.95 815.919 119.461C816.728 119.972 817.406 120.705 817.951 121.66C818.497 122.615 818.77 123.782 818.77 125.163C818.77 126.475 818.471 127.656 817.875 128.704C817.278 129.752 816.336 130.583 815.049 131.197C813.762 131.811 812.088 132.117 810.025 132.117H800.565ZM803.735 129.305H810.025C812.096 129.305 813.566 128.904 814.436 128.103C815.314 127.294 815.752 126.313 815.752 125.163C815.752 124.276 815.527 123.458 815.075 122.708C814.623 121.95 813.98 121.345 813.145 120.893C812.309 120.433 811.321 120.203 810.179 120.203H803.735V129.305ZM803.735 117.441H809.616C810.571 117.441 811.431 117.254 812.199 116.879C812.974 116.504 813.588 115.975 814.039 115.294C814.5 114.612 814.73 113.811 814.73 112.89C814.73 111.74 814.329 110.764 813.528 109.963C812.727 109.153 811.457 108.748 809.718 108.748H803.735V117.441ZM823.519 132.117V129.816L832.161 120.356C833.175 119.248 834.01 118.285 834.667 117.467C835.323 116.64 835.809 115.865 836.124 115.14C836.448 114.407 836.61 113.64 836.61 112.839C836.61 111.919 836.388 111.122 835.945 110.448C835.51 109.775 834.914 109.255 834.155 108.889C833.397 108.522 832.544 108.339 831.598 108.339C830.593 108.339 829.715 108.548 828.965 108.965C828.223 109.374 827.648 109.95 827.239 110.691C826.838 111.433 826.638 112.302 826.638 113.299H823.621C823.621 111.765 823.975 110.419 824.682 109.259C825.39 108.1 826.353 107.197 827.571 106.549C828.799 105.901 830.175 105.578 831.701 105.578C833.235 105.578 834.594 105.901 835.779 106.549C836.963 107.197 837.892 108.07 838.566 109.17C839.239 110.269 839.576 111.492 839.576 112.839C839.576 113.802 839.401 114.744 839.051 115.664C838.711 116.576 838.114 117.595 837.262 118.72C836.418 119.836 835.246 121.2 833.746 122.811L827.865 129.1V129.305H840.036V132.117H823.519Z" fill="white"/>
</g>
<g id="B3">
<rect id="A1_9" x="955" y="42.5" width="65" height="152" fill="#D9D9D9"/>
<path id="B3_2" d="M968.002 132.117V105.936H977.156C978.98 105.936 980.484 106.251 981.669 106.882C982.853 107.504 983.735 108.343 984.315 109.4C984.895 110.448 985.184 111.612 985.184 112.89C985.184 114.015 984.984 114.944 984.583 115.677C984.191 116.41 983.672 116.99 983.024 117.416C982.385 117.842 981.69 118.157 980.94 118.362V118.617C981.741 118.669 982.547 118.95 983.356 119.461C984.166 119.972 984.843 120.705 985.389 121.66C985.934 122.615 986.207 123.782 986.207 125.163C986.207 126.475 985.909 127.656 985.312 128.704C984.716 129.752 983.774 130.583 982.487 131.197C981.2 131.811 979.525 132.117 977.463 132.117H968.002ZM971.173 129.305H977.463C979.534 129.305 981.004 128.904 981.873 128.103C982.751 127.294 983.19 126.313 983.19 125.163C983.19 124.276 982.964 123.458 982.512 122.708C982.061 121.95 981.417 121.345 980.582 120.893C979.747 120.433 978.758 120.203 977.616 120.203H971.173V129.305ZM971.173 117.441H977.054C978.008 117.441 978.869 117.254 979.636 116.879C980.412 116.504 981.025 115.975 981.477 115.294C981.937 114.612 982.167 113.811 982.167 112.89C982.167 111.74 981.767 110.764 980.966 109.963C980.164 109.153 978.895 108.748 977.156 108.748H971.173V117.441ZM999.803 132.475C998.115 132.475 996.611 132.186 995.29 131.606C993.978 131.026 992.934 130.221 992.158 129.19C991.391 128.15 990.973 126.944 990.905 125.572H994.127C994.195 126.416 994.485 127.144 994.996 127.758C995.507 128.363 996.176 128.832 997.003 129.164C997.83 129.497 998.746 129.663 999.752 129.663C1000.88 129.663 1001.87 129.467 1002.74 129.075C1003.61 128.683 1004.29 128.137 1004.79 127.438C1005.28 126.74 1005.53 125.93 1005.53 125.009C1005.53 124.046 1005.29 123.198 1004.81 122.465C1004.34 121.724 1003.64 121.144 1002.72 120.727C1001.8 120.309 1000.67 120.1 999.343 120.1H997.246V117.288H999.343C1000.38 117.288 1001.29 117.1 1002.08 116.725C1002.87 116.35 1003.49 115.822 1003.93 115.14C1004.38 114.458 1004.61 113.657 1004.61 112.737C1004.61 111.85 1004.41 111.079 1004.02 110.423C1003.63 109.767 1003.08 109.255 1002.36 108.889C1001.65 108.522 1000.82 108.339 999.854 108.339C998.951 108.339 998.098 108.505 997.297 108.838C996.505 109.161 995.857 109.634 995.354 110.257C994.851 110.87 994.578 111.612 994.536 112.481H991.468C991.519 111.109 991.932 109.907 992.708 108.876C993.483 107.836 994.498 107.026 995.75 106.447C997.012 105.867 998.397 105.578 999.905 105.578C1001.52 105.578 1002.91 105.906 1004.07 106.562C1005.23 107.21 1006.12 108.066 1006.74 109.132C1007.37 110.197 1007.68 111.347 1007.68 112.583C1007.68 114.058 1007.29 115.315 1006.51 116.355C1005.75 117.394 1004.7 118.115 1003.38 118.515V118.72C1005.04 118.992 1006.33 119.695 1007.26 120.829C1008.19 121.954 1008.65 123.347 1008.65 125.009C1008.65 126.433 1008.26 127.711 1007.49 128.845C1006.72 129.97 1005.67 130.856 1004.34 131.504C1003.01 132.151 1001.5 132.475 999.803 132.475Z" fill="white"/>
</g>
</g>
</g>
</svg>
